HIERARCHY
ROOT Hips
{
	OFFSET 0.000000 71.427986 0.000000
	CHANNELS 6 Xposition Yposition Zposition Xrotation Yrotation Zrotation
	JOINT Pelvis
	{
		OFFSET 0.000000 0.000000 0.000000
		CHANNELS 3 Xrotation Yrotation Zrotation
		JOINT LeftUpLeg
		{
			OFFSET 6.797100 -2.508499 -1.318700
			CHANNELS 3 Xrotation Yrotation Zrotation
			JOINT LeftLeg
			{
				OFFSET 0.069008 -29.241863 0.690200
				CHANNELS 3 Xrotation Yrotation Zrotation
				JOINT LeftFoot
				{
					OFFSET -0.069008 -29.568123 -0.266800
					CHANNELS 3 Xrotation Yrotation Zrotation
					JOINT LeftToeBase
					{
						OFFSET 3.145500 -8.631000 16.059900
						CHANNELS 3 Xrotation Yrotation Zrotation
						End Site
						{
							OFFSET 0.000000 18.501587 0.000000
						}
					}
				}
			}
			JOINT Left_ShortSleeve
			{
				OFFSET 0.265923 -10.480953 1.153800
				CHANNELS 3 Xrotation Yrotation Zrotation
				End Site
				{
					OFFSET 1.725763 19.823879 0.000000
				}
			}
		}
		JOINT RightUpLeg
		{
			OFFSET -6.797100 -2.508499 -1.318700
			CHANNELS 3 Xrotation Yrotation Zrotation
			JOINT RightLeg
			{
				OFFSET -0.082453 -29.241932 0.688000
				CHANNELS 3 Xrotation Yrotation Zrotation
				JOINT RightFoot
				{
					OFFSET 0.082453 -29.568058 -0.264600
					CHANNELS 3 Xrotation Yrotation Zrotation
					JOINT RightToeBase
					{
						OFFSET -3.115300 -8.682800 16.113400
						CHANNELS 3 Xrotation Yrotation Zrotation
						End Site
						{
							OFFSET 0.000000 18.567114 0.000000
						}
					}
				}
			}
			JOINT Right_ShortSleeve
			{
				OFFSET -0.265923 -10.480953 1.153800
				CHANNELS 3 Xrotation Yrotation Zrotation
				End Site
				{
					OFFSET -1.725766 19.823910 0.000000
				}
			}
		}
	}
	JOINT Spine
	{
		OFFSET 0.000000 13.368103 0.470500
		CHANNELS 3 Xrotation Yrotation Zrotation
		JOINT Spine1
		{
			OFFSET 0.147000 13.837402 0.538800
			CHANNELS 3 Xrotation Yrotation Zrotation
			JOINT Spine2
			{
				OFFSET 0.168000 16.242897 -1.435500
				CHANNELS 3 Xrotation Yrotation Zrotation
				JOINT Neck
				{
					OFFSET 0.217200 18.631500 -1.679100
					CHANNELS 3 Xrotation Yrotation Zrotation
					JOINT Head
					{
						OFFSET 0.000000 6.599396 1.385900
						CHANNELS 3 Xrotation Yrotation Zrotation
						JOINT Hat
						{
							OFFSET -0.532200 27.220596 -10.096100
							CHANNELS 3 Xrotation Yrotation Zrotation
							End Site
							{
								OFFSET 0.000000 22.029861 0.000000
							}
						}
						JOINT HairD
						{
							OFFSET -10.777400 17.437393 -1.325900
							CHANNELS 3 Xrotation Yrotation Zrotation
							JOINT HairD1
							{
								OFFSET -3.290299 -11.051193 1.062200
								CHANNELS 3 Xrotation Yrotation Zrotation
								End Site
								{
									OFFSET 0.000000 11.579437 0.000000
								}
							}
						}
						JOINT HairB
						{
							OFFSET -10.777400 17.437393 1.467900
							CHANNELS 3 Xrotation Yrotation Zrotation
							JOINT HairB1
							{
								OFFSET -1.561200 -12.956299 3.590200
								CHANNELS 3 Xrotation Yrotation Zrotation
								End Site
								{
									OFFSET 0.000000 13.534866 0.000000
								}
							}
						}
						JOINT HairA
						{
							OFFSET 9.713100 17.437393 1.467900
							CHANNELS 3 Xrotation Yrotation Zrotation
							JOINT HairA1
							{
								OFFSET 1.561200 -12.956299 3.590200
								CHANNELS 3 Xrotation Yrotation Zrotation
								End Site
								{
									OFFSET 0.000000 13.534866 0.000000
								}
							}
						}
						JOINT HairC
						{
							OFFSET 9.713100 17.437393 -1.325900
							CHANNELS 3 Xrotation Yrotation Zrotation
							JOINT HairC1
							{
								OFFSET 3.290300 -11.051193 1.062200
								CHANNELS 3 Xrotation Yrotation Zrotation
								End Site
								{
									OFFSET 0.000000 11.579437 0.000000
								}
							}
						}
					}
				}
				JOINT LeftShoulder
				{
					OFFSET 5.101800 15.108002 -2.763700
					CHANNELS 3 Xrotation Yrotation Zrotation
					JOINT LeftArm
					{
						OFFSET 9.825497 2.506317 -1.597400
						CHANNELS 3 Xrotation Yrotation Zrotation
						JOINT LeftForeArm
						{
							OFFSET 21.966244 0.000000 0.000000
							CHANNELS 3 Xrotation Yrotation Zrotation
							JOINT LeftHand
							{
								OFFSET 33.879036 0.000000 0.000000
								CHANNELS 3 Xrotation Yrotation Zrotation
								JOINT LeftHandThumb1
								{
									OFFSET 6.715286 -2.359680 3.363841
									CHANNELS 3 Xrotation Yrotation Zrotation
									JOINT LeftHandThumb2
									{
										OFFSET 2.507072 -1.447464 1.447461
										CHANNELS 3 Xrotation Yrotation Zrotation
										JOINT LeftHandThumb3
										{
											OFFSET 2.898338 -1.673355 1.673357
											CHANNELS 3 Xrotation Yrotation Zrotation
											End Site
											{
												OFFSET -0.295959 3.727692 -0.131651
											}
										}
									}
								}
								JOINT LeftHandIndex1
								{
									OFFSET 14.190811 -0.254547 3.840278
									CHANNELS 3 Xrotation Yrotation Zrotation
									JOINT LeftHandIndex2
									{
										OFFSET 3.551727 0.000000 -0.000000
										CHANNELS 3 Xrotation Yrotation Zrotation
										JOINT LeftHandIndex3
										{
											OFFSET 2.894196 0.000000 0.000000
											CHANNELS 3 Xrotation Yrotation Zrotation
											End Site
											{
												OFFSET -1.000603 2.690872 0.366626
											}
										}
									}
								}
								JOINT LeftHandMiddle1
								{
									OFFSET 13.776489 0.000000 0.000000
									CHANNELS 3 Xrotation Yrotation Zrotation
									JOINT LeftHandMiddle2
									{
										OFFSET 3.438232 0.000000 0.000000
										CHANNELS 3 Xrotation Yrotation Zrotation
										JOINT LeftHandMiddle3
										{
											OFFSET 3.691551 0.000000 0.000000
											CHANNELS 3 Xrotation Yrotation Zrotation
											End Site
											{
												OFFSET -1.082298 3.499527 0.457670
											}
										}
									}
								}
								JOINT LeftHandRing1
								{
									OFFSET 13.966164 -0.268127 -3.067488
									CHANNELS 3 Xrotation Yrotation Zrotation
									JOINT LeftHandRing2
									{
										OFFSET 3.162567 0.000000 0.000000
										CHANNELS 3 Xrotation Yrotation Zrotation
										JOINT LeftHandRing3
										{
											OFFSET 3.324348 0.000000 0.000000
											CHANNELS 3 Xrotation Yrotation Zrotation
											End Site
											{
												OFFSET -0.861900 3.184998 0.405154
											}
										}
									}
								}
								JOINT LeftHandPinky1
								{
									OFFSET 13.131393 -0.168503 -5.746925
									CHANNELS 3 Xrotation Yrotation Zrotation
									JOINT LeftHandPinky2
									{
										OFFSET 2.849182 0.000000 0.000000
										CHANNELS 3 Xrotation Yrotation Zrotation
										JOINT LeftHandPinky3
										{
											OFFSET 2.805038 0.000000 0.000000
											CHANNELS 3 Xrotation Yrotation Zrotation
											End Site
											{
												OFFSET -0.882500 2.642609 0.325652
											}
										}
									}
								}
							}
							JOINT Left_Sleeve
							{
								OFFSET 6.592125 -0.646545 0.805568
								CHANNELS 3 Xrotation Yrotation Zrotation
								End Site
								{
									OFFSET -0.000179 20.275787 -0.000000
								}
							}
						}
					}
				}
				JOINT RightShoulder
				{
					OFFSET -5.731700 15.108002 -2.763700
					CHANNELS 3 Xrotation Yrotation Zrotation
					JOINT RightArm
					{
						OFFSET -9.825497 2.506317 -1.597400
						CHANNELS 3 Xrotation Yrotation Zrotation
						JOINT RightForeArm
						{
							OFFSET -21.966242 0.000000 0.000000
							CHANNELS 3 Xrotation Yrotation Zrotation
							JOINT RightHand
							{
								OFFSET -33.879032 0.000000 0.000000
								CHANNELS 3 Xrotation Yrotation Zrotation
								JOINT RightHandThumb1
								{
									OFFSET -6.715286 -2.359680 3.363841
									CHANNELS 3 Xrotation Yrotation Zrotation
									JOINT RightHandThumb2
									{
										OFFSET -2.507072 -1.447464 1.447461
										CHANNELS 3 Xrotation Yrotation Zrotation
										JOINT RightHandThumb3
										{
											OFFSET -2.898338 -1.673355 1.673357
											CHANNELS 3 Xrotation Yrotation Zrotation
											End Site
											{
												OFFSET 0.295959 3.727692 -0.131651
											}
										}
									}
								}
								JOINT RightHandIndex1
								{
									OFFSET -14.190811 -0.254547 3.840278
									CHANNELS 3 Xrotation Yrotation Zrotation
									JOINT RightHandIndex2
									{
										OFFSET -3.551727 0.000000 -0.000000
										CHANNELS 3 Xrotation Yrotation Zrotation
										JOINT RightHandIndex3
										{
											OFFSET -2.894196 0.000000 0.000000
											CHANNELS 3 Xrotation Yrotation Zrotation
											End Site
											{
												OFFSET 1.000603 2.690872 0.366626
											}
										}
									}
								}
								JOINT RightHandMiddle1
								{
									OFFSET -13.776489 0.000000 0.000000
									CHANNELS 3 Xrotation Yrotation Zrotation
									JOINT RightHandMiddle2
									{
										OFFSET -3.438232 0.000000 0.000000
										CHANNELS 3 Xrotation Yrotation Zrotation
										JOINT RightHandMiddle3
										{
											OFFSET -3.691551 0.000000 0.000000
											CHANNELS 3 Xrotation Yrotation Zrotation
											End Site
											{
												OFFSET 1.082298 3.499527 0.457670
											}
										}
									}
								}
								JOINT RightHandRing1
								{
									OFFSET -13.966164 -0.268127 -3.067488
									CHANNELS 3 Xrotation Yrotation Zrotation
									JOINT RightHandRing2
									{
										OFFSET -3.162567 0.000000 0.000000
										CHANNELS 3 Xrotation Yrotation Zrotation
										JOINT RightHandRing3
										{
											OFFSET -3.324348 0.000000 0.000000
											CHANNELS 3 Xrotation Yrotation Zrotation
											End Site
											{
												OFFSET 0.861900 3.184998 0.405154
											}
										}
									}
								}
								JOINT RightHandPinky1
								{
									OFFSET -13.131393 -0.168503 -5.746925
									CHANNELS 3 Xrotation Yrotation Zrotation
									JOINT RightHandPinky2
									{
										OFFSET -2.849182 0.000000 0.000000
										CHANNELS 3 Xrotation Yrotation Zrotation
										JOINT RightHandPinky3
										{
											OFFSET -2.805038 0.000000 0.000000
											CHANNELS 3 Xrotation Yrotation Zrotation
											End Site
											{
												OFFSET 0.882500 2.642609 0.325652
											}
										}
									}
								}
							}
							JOINT Right_Sleeve
							{
								OFFSET -6.592125 -0.646545 0.805568
								CHANNELS 3 Xrotation Yrotation Zrotation
								End Site
								{
									OFFSET 0.000179 20.275787 -0.000000
								}
							}
						}
					}
				}
				JOINT Bind_Right_JacketString
				{
					OFFSET -3.534800 11.969597 7.200700
					CHANNELS 3 Xrotation Yrotation Zrotation
					JOINT Bind_Right_JacketString1
					{
						OFFSET -0.319900 -6.102600 2.794100
						CHANNELS 3 Xrotation Yrotation Zrotation
						End Site
						{
							OFFSET 0.000000 6.719452 0.000000
						}
					}
				}
				JOINT Bind_Left_JacketString
				{
					OFFSET 2.904800 11.969597 7.200700
					CHANNELS 3 Xrotation Yrotation Zrotation
					JOINT Bind_Left_JacketString1
					{
						OFFSET 0.364800 -5.904503 3.186800
						CHANNELS 3 Xrotation Yrotation Zrotation
						End Site
						{
							OFFSET 0.000000 6.719513 0.000000
						}
					}
				}
				JOINT HairE
				{
					OFFSET 5.915200 17.612701 -11.592200
					CHANNELS 3 Xrotation Yrotation Zrotation
					JOINT HairE1
					{
						OFFSET 0.289200 -7.171898 -1.284500
						CHANNELS 3 Xrotation Yrotation Zrotation
						End Site
						{
							OFFSET 0.000000 7.291756 0.000000
						}
					}
				}
				JOINT HairF
				{
					OFFSET -0.864800 17.612701 -11.592200
					CHANNELS 3 Xrotation Yrotation Zrotation
					JOINT HairF1
					{
						OFFSET 0.000000 -14.087097 -2.127501
						CHANNELS 3 Xrotation Yrotation Zrotation
						End Site
						{
							OFFSET 0.000000 14.246841 0.000000
						}
					}
				}
				JOINT HairG
				{
					OFFSET -8.087700 17.612701 -11.592200
					CHANNELS 3 Xrotation Yrotation Zrotation
					JOINT HairG1
					{
						OFFSET -0.293600 -6.081398 -0.910100
						CHANNELS 3 Xrotation Yrotation Zrotation
						End Site
						{
							OFFSET 0.000000 6.156120 0.000000
						}
					}
				}
			}
		}
	}
	JOINT Pouch
	{
		OFFSET 0.000000 4.394501 10.847300
		CHANNELS 3 Xrotation Yrotation Zrotation
		End Site
		{
			OFFSET 0.000000 21.880577 0.000000
		}
	}
	JOINT Bag
	{
		OFFSET -13.229000 4.813004 -0.593300
		CHANNELS 3 Xrotation Yrotation Zrotation
		End Site
		{
			OFFSET 0.000000 21.880577 0.000000
		}
	}
	JOINT OccupyGuyFacialAnim_Joint
	{
		OFFSET 1.000000 -70.206398 -1.655000
		CHANNELS 3 Xrotation Yrotation Zrotation
		End Site
		{
			OFFSET 0.000000 21.880577 0.000000
		}
	}
}
MOTION
Frames: 5
Frame Time: 0.016667
0.083421 65.428093 1.960480 5.449712 2.966781 -3.413134 -0.000000 -0.000000 0.000000 -41.441326 6.180877 -1.468771 99.884789 14.229436 3.981347 -12.998420 -0.974556 5.824723 0.000001 0.000001 0.000000 -0.000001 0.000001 -0.000001 -18.143247 -5.602754 4.637781 50.810621 -0.272338 -1.569683 -31.076336 0.338494 -1.280032 -0.000000 0.000000 -0.000000 -0.000001 0.000000 -0.000000 4.917348 1.322466 1.787114 9.857120 2.800248 1.722123 9.857133 2.800252 1.722122 -7.496580 -3.144983 -0.434787 -14.101445 -7.360288 -5.253898 0.000001 -0.000000 -0.000000 0.000001 -0.000000 -0.000000 0.000001 -0.000000 -0.000000 0.000001 -0.000000 -0.000000 0.000000 0.000000 -0.000000 0.000001 -0.000000 -0.000000 0.000000 0.000000 -0.000000 0.000001 -0.000000 -0.000000 0.000001 -0.000000 -0.000000 1.084062 -1.226537 -9.108710 21.951222 16.129908 -69.744598 5.201879 -103.989890 -6.123380 11.822891 -20.243284 2.841631 -3.690084 -7.086985 -6.632105 5.385696 13.659110 2.745847 0.000002 0.000002 -0.000001 -4.456498 -5.493641 -78.091861 -6.126701 -4.186033 -86.100292 0.000001 0.000002 -0.000003 -4.795445 -3.750246 -81.576924 -5.123612 -5.382111 -79.877539 0.000001 -0.000001 -0.000001 -3.664382 4.578231 -85.637417 -3.073151 -4.292444 -82.602983 -0.000001 -0.000000 0.000001 -3.281140 10.951589 -91.300587 -1.701521 -6.201367 -92.126589 0.000001 -0.000000 0.000001 -0.000001 0.000002 -0.000001 0.776468 6.054087 9.529804 5.506723 -10.523612 55.529284 -70.895752 86.710495 75.612885 -0.541027 5.793762 2.436037 1.190237 2.334531 7.237265 4.255915 -11.098861 -2.566630 -0.000001 0.000000 -0.000002 3.425551 2.971801 72.847150 -5.590541 2.960022 92.129034 0.000000 0.000003 0.000002 -2.182829 2.038036 78.119080 -4.717974 4.324968 85.933076 0.000001 -0.000001 0.000001 -3.544761 -3.138566 85.503354 -4.845212 5.681169 88.623330 0.000000 -0.000000 0.000001 -4.116703 -7.840884 98.141520 -5.448583 9.316750 98.222341 0.000000 0.000002 -0.000001 0.000003 -0.000002 0.000003 -0.000002 0.000000 0.000000 0.000000 0.000000 -0.000000 -0.000002 0.000000 0.000000 -0.000002 0.000000 0.000000 -0.000002 0.000000 0.000000 0.000000 0.000000 -0.000000 -0.000002 0.000000 0.000000 -0.000002 0.000000 0.000000 -0.000002 0.000000 0.000000 0.000000 0.000000 -0.000000 -0.000000 -0.000000 0.000000 -0.000000 -0.000000 0.000000 -0.000000 -0.000000 0.000000 
0.580720 66.458313 9.173882 3.089924 0.581213 -0.081750 0.000000 -0.000000 -0.000000 -49.196275 4.590032 -1.721311 95.149658 14.662423 4.051370 -5.301313 -0.875193 7.390066 -0.000000 0.000001 0.000000 0.000002 0.000000 -0.000000 -10.177649 -4.852331 1.381962 51.564305 0.314058 -3.345261 -28.289867 0.140536 0.264512 -0.000003 -0.000000 0.000000 0.000001 0.000000 0.000000 4.792512 1.567506 0.967623 9.626596 3.123980 0.274439 9.626592 3.123980 0.274439 -2.454933 -3.325482 -1.544303 -13.137938 -8.242274 -5.177376 0.000001 0.000000 0.000000 0.000001 0.000000 0.000000 0.000001 0.000000 0.000000 0.000001 0.000000 0.000000 0.000001 0.000000 -0.000000 0.000001 0.000000 0.000000 0.000001 0.000000 -0.000000 0.000001 0.000000 0.000000 0.000001 0.000000 0.000000 1.017757 -3.352019 -7.689895 20.366328 21.388592 -69.829477 3.146335 -98.519837 -7.265977 11.665513 -20.398006 3.541816 -3.674519 -7.031700 -6.573691 5.390391 13.668761 2.745673 0.000001 -0.000000 -0.000000 -4.415704 -5.486232 -77.672597 -6.076185 -4.184138 -85.682237 -0.000000 -0.000000 -0.000002 -4.761747 -3.747115 -81.225054 -5.085656 -5.375470 -79.524787 -0.000000 0.000002 -0.000004 -3.642460 4.581544 -85.331814 -3.053903 -4.287325 -82.294040 -0.000002 0.000003 -0.000003 -3.262890 10.951648 -90.969425 -1.695752 -6.201278 -91.857705 0.000001 -0.000001 0.000001 -0.000001 -0.000001 0.000001 0.471249 6.581698 7.077383 2.677233 -8.531775 52.506331 -124.820724 83.187312 129.905758 0.046010 8.442202 -4.547160 1.063724 2.389933 7.088562 4.210536 -10.996082 -2.558755 -0.000002 0.000000 -0.000001 3.285716 2.958043 72.384480 -5.532254 2.967185 91.535060 -0.000001 0.000000 0.000000 -2.157716 2.014420 77.565377 -4.667182 4.322081 85.362222 -0.000000 -0.000001 0.000001 -3.433812 -3.143487 84.861378 -4.797942 5.679357 88.073992 -0.000001 0.000001 -0.000001 -3.951815 -7.817798 97.410765 -5.399211 9.319789 97.590890 -0.000001 0.000001 -0.000001 0.000004 -0.000000 -0.000002 -0.000002 -0.000001 0.000000 -0.000002 0.000000 -0.000000 -0.000002 -0.000001 0.000000 -0.000002 -0.000001 0.000000 -0.000002 -0.000001 0.000000 -0.000002 0.000000 -0.000000 -0.000002 -0.000001 0.000000 -0.000002 -0.000001 0.000000 -0.000002 -0.000001 0.000000 -0.000002 0.000000 -0.000000 0.000000 -0.000000 -0.000000 0.000000 -0.000000 -0.000000 0.000000 -0.000000 -0.000000 
1.077744 67.085770 16.456652 0.117727 -1.599039 3.372191 -0.000000 0.000000 -0.000000 -53.522947 2.744796 -3.231368 88.532161 15.799244 4.149230 -0.016247 -0.701217 7.822435 0.000006 0.000000 -0.000000 0.000001 0.000000 0.000000 -5.233845 -4.001737 -3.202328 57.344506 -0.579185 -4.479678 -18.553082 0.057403 3.184696 -0.000001 0.000000 -0.000000 -0.000000 -0.000000 -0.000000 4.722761 1.647566 0.025819 9.488552 3.163840 -0.986325 9.488545 3.163837 -0.986325 2.602475 -3.411512 -2.577496 -12.199130 -8.439065 -5.062700 -0.000000 -0.000001 0.000000 -0.000000 -0.000001 0.000000 -0.000000 -0.000001 -0.000000 -0.000000 -0.000001 0.000000 -0.000000 -0.000000 -0.000000 -0.000000 -0.000001 0.000000 -0.000000 -0.000000 -0.000000 -0.000000 -0.000001 0.000000 -0.000000 -0.000001 0.000000 0.950479 -5.646695 -7.066023 19.644679 26.553701 -68.303415 -44.943734 -91.993311 -56.509830 12.433743 -20.263201 4.153210 -3.631268 -6.892568 -6.427404 5.402862 13.694231 2.745127 0.000003 -0.000002 0.000003 -4.313990 -5.463031 -76.623016 -5.949281 -4.173862 -84.635702 -0.000002 -0.000002 -0.000002 -4.676684 -3.733412 -80.346295 -4.991210 -5.357317 -78.643788 0.000001 0.000003 -0.000001 -3.588980 4.586275 -84.569975 -3.007753 -4.280700 -81.524072 -0.000000 0.000003 -0.000000 -3.217710 10.951125 -90.145042 -1.681579 -6.201957 -91.189275 -0.000001 0.000003 -0.000000 0.000000 0.000000 -0.000000 0.215435 7.052319 4.417728 -0.696324 -7.601961 49.506618 -136.723585 80.118419 141.096040 -1.682969 8.719119 -8.099236 0.735819 2.516786 6.699283 4.098470 -10.742294 -2.538909 -0.000001 -0.000001 0.000000 2.946297 2.950497 71.140628 -5.372443 2.971069 89.955224 -0.000001 -0.000001 0.000000 -2.097267 1.952033 76.105383 -4.531264 4.309451 83.837553 -0.000001 0.000000 0.000001 -3.153779 -3.176301 83.187189 -4.671680 5.673725 86.598418 0.000000 0.000002 -0.000003 -3.529611 -7.793285 95.484214 -5.273503 9.333574 95.921565 -0.000001 0.000001 0.000001 0.000003 -0.000000 -0.000003 0.000002 -0.000001 0.000000 0.000000 -0.000000 -0.000000 0.000002 -0.000001 0.000000 0.000002 -0.000001 0.000000 0.000002 -0.000001 0.000000 0.000000 -0.000000 -0.000000 0.000002 -0.000001 0.000000 0.000002 -0.000001 0.000000 0.000002 -0.000001 0.000000 0.000000 -0.000000 -0.000000 -0.000000 0.000000 -0.000000 -0.000000 0.000000 -0.000000 -0.000000 0.000000 -0.000000 
1.496899 67.077141 23.311026 -3.235304 -4.252334 6.333290 -0.000000 -0.000000 0.000000 -55.510170 1.034529 -4.932884 80.685769 18.695196 4.738888 2.170572 -0.638091 7.586427 -0.000000 -0.000000 0.000000 -0.000005 0.000000 0.000000 -5.361684 -0.014359 -8.449005 65.887147 -2.378010 -5.104062 4.793417 0.813518 3.465288 0.000001 0.000000 -0.000000 0.000002 0.000000 -0.000000 4.904392 1.719063 -1.093358 9.838374 3.169748 -2.175854 9.838373 3.169748 -2.175856 7.329082 -3.470430 -3.521876 -11.394773 -8.119054 -4.996078 0.000001 0.000000 -0.000000 0.000001 0.000000 -0.000000 0.000001 0.000000 0.000000 0.000001 0.000000 0.000000 0.000001 -0.000000 -0.000001 0.000001 0.000000 0.000000 0.000001 -0.000000 -0.000001 0.000001 0.000000 -0.000000 0.000001 0.000000 -0.000000 0.873610 -7.727235 -6.705415 19.528651 31.328223 -66.134078 -131.666786 -98.266744 -145.356111 13.514973 -20.043417 4.561867 -3.569431 -6.695159 -6.222080 5.420904 13.731103 2.744345 -0.000004 0.000003 -0.000003 -4.171543 -5.426544 -75.144177 -5.770800 -4.154612 -83.161023 -0.000000 -0.000003 0.000003 -4.557141 -3.710886 -79.109327 -4.858688 -5.329180 -77.403631 0.000001 -0.000001 0.000001 -3.514153 4.593280 -83.498475 -2.943347 -4.271651 -80.441071 -0.000004 0.000001 -0.000001 -3.154218 10.951218 -88.986225 -1.661698 -6.202852 -90.250261 0.000000 0.000002 -0.000000 0.000000 -0.000006 0.000005 -0.010818 7.405827 1.517427 -3.959897 -7.479181 46.796689 -143.758338 76.454829 146.944854 -4.558725 7.638977 -9.646814 0.277075 2.694353 6.152285 3.942590 -10.389851 -2.510530 0.000001 0.000000 0.000002 2.483130 2.965509 69.371397 -5.146227 2.966135 87.716752 -0.000000 -0.000001 0.000004 -2.014721 1.861845 74.039695 -4.339287 4.284735 81.675006 0.000001 0.000000 0.000003 -2.765306 -3.243689 80.825098 -4.492699 5.660378 84.502902 0.000001 0.000001 -0.000001 -2.938745 -7.797535 92.760861 -5.095205 9.348752 93.559296 0.000000 0.000004 -0.000001 -0.000002 -0.000000 0.000001 0.000000 0.000000 -0.000000 0.000000 0.000000 -0.000000 0.000000 0.000000 -0.000000 0.000000 0.000000 -0.000000 0.000000 0.000000 -0.000000 0.000000 0.000000 -0.000000 0.000000 0.000000 -0.000000 0.000000 0.000000 -0.000000 0.000000 0.000000 -0.000000 0.000000 0.000000 -0.000000 -0.000000 -0.000000 0.000000 -0.000000 -0.000000 0.000000 -0.000000 -0.000000 0.000000 
1.687421 66.311516 30.082340 -6.458365 -7.980584 8.630467 -0.000000 0.000000 0.000000 -55.149615 -0.239750 -5.625413 71.845920 22.925812 5.648605 1.213385 -0.704745 7.448598 0.000000 0.000001 -0.000001 0.000002 0.000000 0.000002 1.454036 3.853106 -12.201651 58.390358 5.089074 -3.821167 38.817495 -0.433419 -3.022914 -0.000000 -0.000000 0.000000 -0.000000 0.000000 -0.000000 5.245906 1.911691 -2.250256 10.507892 3.279739 -3.461314 10.507889 3.279740 -3.461316 11.415391 -3.410768 -4.364175 -10.844146 -7.168178 -5.071504 0.000001 -0.000000 -0.000000 0.000001 -0.000000 -0.000000 0.000001 -0.000000 0.000000 0.000001 -0.000000 -0.000000 0.000001 -0.000000 -0.000000 0.000001 -0.000000 -0.000000 0.000001 -0.000000 -0.000000 0.000001 -0.000000 -0.000000 0.000001 -0.000000 -0.000000 0.774292 -9.387642 -6.438876 20.205214 35.514597 -63.760116 -135.636492 -107.342590 -152.241420 14.696532 -19.840084 4.688475 -3.486544 -6.430050 -5.950331 5.443113 13.782350 2.747469 -0.000003 -0.000001 0.000003 -3.983683 -5.371869 -73.176338 -5.534247 -4.121333 -81.198607 -0.000001 -0.000004 0.000003 -4.399190 -3.677754 -77.464959 -4.683590 -5.287265 -75.755158 0.000003 -0.000003 0.000000 -3.414866 4.605279 -82.075344 -2.857882 -4.256733 -79.002776 0.000000 0.000003 -0.000001 -3.069975 10.953118 -87.448018 -1.635315 -6.203596 -89.004468 -0.000001 0.000001 0.000001 0.000002 -0.000000 0.000001 -0.199664 7.579318 -1.593903 -6.612564 -8.410420 44.561998 -147.787781 71.668396 149.583424 -7.996768 5.401398 -9.701863 -0.322405 2.931766 5.434812 3.738940 -9.930193 -2.472038 0.000001 -0.000001 0.000001 1.894206 3.027109 67.020097 -4.848688 2.943816 84.752477 0.000001 -0.000000 0.000000 -1.909628 1.739099 71.305877 -4.086924 4.240354 78.809236 0.000001 0.000001 0.000003 -2.262894 -3.367141 77.705601 -4.256135 5.632851 81.723466 0.000000 -0.000001 0.000003 -2.167077 -7.866929 89.161542 -4.857863 9.359197 90.433528 0.000000 0.000000 0.000002 -0.000000 -0.000001 -0.000001 -0.000000 0.000000 -0.000000 -0.000000 0.000000 -0.000000 -0.000000 0.000000 -0.000000 -0.000000 0.000000 -0.000000 -0.000000 0.000000 -0.000000 -0.000000 0.000000 -0.000000 -0.000000 0.000000 -0.000000 -0.000000 0.000000 -0.000000 -0.000000 0.000000 -0.000000 -0.000000 0.000000 -0.000000 -0.000000 0.000000 0.000000 -0.000000 0.000000 0.000000 -0.000000 0.000000 0.000000 
